<svg width="76" height="64" viewBox="0 0 76 64" fill="none" xmlns="http://www.w3.org/2000/svg">
<path d="M6.6131 12.5H74.5L62.5 43H21.5L1 1" stroke="black" stroke-width="2"/>
<circle cx="30" cy="55.5" r="7" stroke="black" stroke-width="2"/>
<circle cx="55" cy="55.5" r="7" stroke="black" stroke-width="2"/>
<path d="M31.7402 27.228C31.7402 25.404 31.9922 23.76 32.4962 22.296C33.0242 20.808 33.7202 19.548 34.5842 18.516C35.4722 17.484 36.5042 16.692 37.6802 16.14C38.8562 15.588 40.1162 15.312 41.4602 15.312C42.8042 15.312 44.0642 15.6 45.2402 16.176C46.4162 16.752 47.4362 17.568 48.3002 18.624C49.1642 19.656 49.8362 20.916 50.3162 22.404C50.7962 23.892 51.0362 25.548 51.0362 27.372C51.0362 29.196 50.7482 30.84 50.1722 32.304C49.6202 33.768 48.8882 35.028 47.9762 36.084C47.0642 37.116 46.0322 37.908 44.8802 38.46C43.7282 39.012 42.5402 39.288 41.3162 39.288C40.0922 39.288 38.9042 39 37.7522 38.424C36.6002 37.848 35.5682 37.032 34.6562 35.976C33.7682 34.92 33.0602 33.66 32.5322 32.196C32.0042 30.708 31.7402 29.052 31.7402 27.228ZM34.7642 27.264C34.7642 28.536 34.9322 29.724 35.2682 30.828C35.6042 31.932 36.0722 32.892 36.6722 33.708C37.2722 34.524 37.9682 35.172 38.7602 35.652C39.5522 36.132 40.4042 36.372 41.3162 36.372C42.2042 36.372 43.0562 36.144 43.8722 35.688C44.6882 35.232 45.3962 34.596 45.9962 33.78C46.6202 32.964 47.1122 32.004 47.4722 30.9C47.8322 29.796 48.0122 28.608 48.0122 27.336C48.0122 26.472 47.9042 25.512 47.6882 24.456C47.4722 23.4 47.1002 22.416 46.5722 21.504C46.0682 20.568 45.3962 19.788 44.5562 19.164C43.7162 18.54 42.6842 18.228 41.4602 18.228C40.2362 18.228 39.1922 18.54 38.3282 19.164C37.4882 19.764 36.8042 20.52 36.2762 21.432C35.7482 22.344 35.3642 23.328 35.1242 24.384C34.8842 25.44 34.7642 26.4 34.7642 27.264Z" fill="black"/>
</svg>
