<svg width="95" height="80" viewBox="0 0 95 80" fill="none" xmlns="http://www.w3.org/2000/svg">
<path d="M42.7578 19.7109C44.1016 20.0859 45.2422 20.5156 46.1797 21C47.1328 21.4844 47.9297 21.9922 48.5703 22.5234C49.2266 23.0391 49.7422 23.5703 50.1172 24.1172C50.4922 24.6641 50.7812 25.1875 50.9844 25.6875C51.1875 26.1875 51.3125 26.6562 51.3594 27.0938C51.4219 27.5156 51.4531 27.875 51.4531 28.1719C51.4531 29.2656 51.2422 30.2422 50.8203 31.1016C50.4141 31.9609 49.8594 32.7188 49.1562 33.375C48.4531 34.0312 47.6328 34.5859 46.6953 35.0391C45.7734 35.4922 44.8047 35.8594 43.7891 36.1406C42.7734 36.4375 41.7344 36.6484 40.6719 36.7734C39.6094 36.9141 38.6016 36.9844 37.6484 36.9844C36.1016 36.9844 34.5 36.8281 32.8438 36.5156C31.2031 36.2031 29.5391 35.6953 27.8516 34.9922C27.4766 34.8359 27.2891 34.5625 27.2891 34.1719C27.2891 33.9062 27.3828 33.6953 27.5703 33.5391C27.7578 33.3672 27.9609 33.2812 28.1797 33.2812C28.2891 33.2812 28.4062 33.3047 28.5312 33.3516C29.9844 33.9609 31.4766 34.4219 33.0078 34.7344C34.5391 35.0469 36.0781 35.2031 37.625 35.2031C39.7344 35.2031 41.5469 35 43.0625 34.5938C44.5781 34.1875 45.8203 33.6562 46.7891 33C47.7734 32.3281 48.5 31.5781 48.9688 30.75C49.4375 29.9062 49.6719 29.0547 49.6719 28.1953C49.6719 27.2422 49.4062 26.3594 48.875 25.5469C48.3594 24.7344 47.6172 24.0078 46.6484 23.3672C45.6953 22.7266 44.5469 22.1797 43.2031 21.7266C41.8594 21.2734 40.3672 20.9375 38.7266 20.7188C37.6484 20.9062 36.6016 21.0391 35.5859 21.1172C34.5703 21.1953 33.6328 21.2344 32.7734 21.2344H32.2344C32.125 21.2344 32.0234 21.2266 31.9297 21.2109C30.8047 23.9141 29.4609 26.25 27.8984 28.2188C26.3516 30.1875 24.6953 31.8203 22.9297 33.1172C21.1797 34.3984 19.375 35.3516 17.5156 35.9766C15.6719 36.5859 13.8984 36.8906 12.1953 36.8906C10.4297 36.8906 8.80469 36.6406 7.32031 36.1406C5.85156 35.6562 4.58594 34.9609 3.52344 34.0547C2.46094 33.1484 1.63281 32.0547 1.03906 30.7734C0.445312 29.4766 0.148438 28.0312 0.148438 26.4375C0.148438 24.7812 0.46875 23.0703 1.10938 21.3047C1.76562 19.5234 2.73438 17.7188 4.01562 15.8906C5.23438 14.1719 6.58594 12.6328 8.07031 11.2734C9.55469 9.89844 11.1094 8.69531 12.7344 7.66406C14.375 6.63281 16.0625 5.75 17.7969 5.01562C19.5312 4.28125 21.25 3.67969 22.9531 3.21094C24.6719 2.74219 26.3438 2.40625 27.9688 2.20312C29.6094 1.98438 31.1484 1.875 32.5859 1.875C33.7578 1.875 34.875 1.91406 35.9375 1.99219C37 2.07031 38.0156 2.1875 38.9844 2.34375C39.5469 1.71875 40 1.27344 40.3438 1.00781C40.6875 0.726562 40.8828 0.570312 40.9297 0.539062C41.1172 0.445312 41.2812 0.398438 41.4219 0.398438C41.6406 0.398438 41.8359 0.460938 42.0078 0.585938C42.1797 0.710937 42.2656 0.890625 42.2656 1.125C42.2656 1.4375 42.1562 1.70313 41.9375 1.92188C41.7188 2.125 41.4219 2.40625 41.0469 2.76562C43.9062 3.46875 46.0938 4.53125 47.6094 5.95312C49.125 7.35938 49.8828 9.10156 49.8828 11.1797C49.8828 12.3203 49.6953 13.3438 49.3203 14.25C48.9453 15.1562 48.4297 15.9531 47.7734 16.6406C47.1328 17.3281 46.375 17.9297 45.5 18.4453C44.6406 18.9453 43.7266 19.3672 42.7578 19.7109ZM38.75 18.9375C39.4375 18.8125 40.1406 18.6484 40.8594 18.4453C41.5938 18.2422 42.3047 18 42.9922 17.7188C43.6953 17.4219 44.3594 17.0781 44.9844 16.6875C45.6094 16.2812 46.1484 15.8125 46.6016 15.2812C47.0703 14.7344 47.4375 14.125 47.7031 13.4531C47.9844 12.7812 48.125 12.0156 48.125 11.1562C48.125 9.40625 47.3984 7.96094 45.9453 6.82031C44.4922 5.67969 42.4062 4.83594 39.6875 4.28906C38.9062 5.25781 38.1719 6.32812 37.4844 7.5C36.7969 8.67188 36.1641 9.89062 35.5859 11.1562C35.0078 12.4062 34.4844 13.6797 34.0156 14.9766C33.5625 16.2578 33.1875 17.5 32.8906 18.7031C33.2031 18.6875 33.4922 18.6797 33.7578 18.6797C34.0234 18.6797 34.25 18.6797 34.4375 18.6797C35.0469 18.6797 35.7109 18.7031 36.4297 18.75C37.1484 18.7812 37.9219 18.8438 38.75 18.9375ZM37.6953 3.96094C36.8984 3.85156 36.0781 3.77344 35.2344 3.72656C34.3906 3.67969 33.5078 3.65625 32.5859 3.65625C31.2109 3.65625 29.75 3.75781 28.2031 3.96094C26.6562 4.16406 25.0703 4.48437 23.4453 4.92188C21.8203 5.35938 20.1797 5.92969 18.5234 6.63281C16.8828 7.32031 15.2812 8.15625 13.7188 9.14062C12.1719 10.1094 10.6953 11.2422 9.28906 12.5391C7.88281 13.8359 6.60156 15.2969 5.44531 16.9219C4.27344 18.5781 3.39062 20.2109 2.79688 21.8203C2.20312 23.4297 1.90625 24.9609 1.90625 26.4141C1.90625 27.7734 2.14844 28.9922 2.63281 30.0703C3.13281 31.1484 3.83594 32.0625 4.74219 32.8125C5.64844 33.5469 6.73438 34.1172 8 34.5234C9.26562 34.9141 10.6641 35.1094 12.1953 35.1094C13.7266 35.1094 15.3203 34.8359 16.9766 34.2891C18.6328 33.7266 20.25 32.875 21.8281 31.7344C23.4062 30.5781 24.9062 29.125 26.3281 27.375C27.75 25.6094 28.9922 23.5156 30.0547 21.0938C29.7734 21.0938 29.4844 21.0156 29.1875 20.8594C28.8906 20.6875 28.7422 20.4219 28.7422 20.0625C28.7422 19.6875 28.9219 19.4219 29.2812 19.2656C29.6406 19.0938 30.2031 18.9531 30.9688 18.8438C31.3906 17.5625 31.8203 16.2812 32.2578 15C32.6953 13.7188 33.1797 12.4531 33.7109 11.2031C34.2422 9.95313 34.8281 8.72656 35.4688 7.52344C36.1094 6.30469 36.8516 5.11719 37.6953 3.96094ZM62.7266 33.375C62.1797 34.2656 61.5391 34.9688 60.8047 35.4844C60.0859 36 59.3594 36.2578 58.625 36.2578C58.0312 36.2578 57.5 36.1484 57.0312 35.9297C56.5625 35.7109 56.1562 35.4062 55.8125 35.0156C55.4688 34.6094 55.2031 34.125 55.0156 33.5625C54.8438 33 54.7578 32.3672 54.7578 31.6641C54.7578 30.5703 54.8594 29.6016 55.0625 28.7578C55.2812 27.9141 55.5156 27.2109 55.7656 26.6484C56.0156 26.0703 56.25 25.6328 56.4688 25.3359C56.6875 25.0391 56.7969 24.8906 56.7969 24.8906C56.875 24.7969 56.9688 24.7266 57.0781 24.6797C57.2031 24.6328 57.3281 24.6094 57.4531 24.6094C57.7031 24.6094 57.9062 24.7031 58.0625 24.8906C58.2344 25.0625 58.3203 25.2656 58.3203 25.5C58.3203 25.5938 58.2969 25.6875 58.25 25.7812C58.2188 25.875 58.1797 25.9688 58.1328 26.0625C58.0547 26.2031 57.9297 26.4219 57.7578 26.7188C57.5859 27 57.4062 27.375 57.2188 27.8438C57.0312 28.3125 56.8672 28.8672 56.7266 29.5078C56.5859 30.1328 56.5156 30.8516 56.5156 31.6641C56.5156 32.5859 56.6953 33.2891 57.0547 33.7734C57.4297 34.2422 57.9531 34.4766 58.625 34.4766C58.9062 34.4766 59.2266 34.3906 59.5859 34.2188C59.9609 34.0312 60.3203 33.75 60.6641 33.375C61.0234 33 61.3359 32.5234 61.6016 31.9453C61.8672 31.3672 62.0391 30.6875 62.1172 29.9062L62.4688 25.875C62.5 25.6406 62.6016 25.4453 62.7734 25.2891C62.9453 25.1328 63.1484 25.0547 63.3828 25.0547C63.6484 25.0547 63.8594 25.1562 64.0156 25.3594C64.1719 25.5469 64.25 25.7656 64.25 26.0156L63.9453 29.9062C63.9141 30.2344 63.9219 30.6641 63.9688 31.1953C64.0312 31.7266 64.1484 32.25 64.3203 32.7656C64.4922 33.2812 64.75 33.7266 65.0938 34.1016C65.4375 34.4609 65.8906 34.6406 66.4531 34.6406C66.8594 34.6406 67.2578 34.5391 67.6484 34.3359C68.0391 34.1172 68.4141 33.8359 68.7734 33.4922C69.1328 33.1484 69.4609 32.7656 69.7578 32.3438C70.0703 31.9062 70.3516 31.4688 70.6016 31.0312C70.8672 30.5938 71.0938 30.1797 71.2812 29.7891C71.4688 29.3828 71.625 29.0391 71.75 28.7578C71.8281 28.5859 71.9375 28.4531 72.0781 28.3594C72.2188 28.2656 72.375 28.2188 72.5469 28.2188C72.8281 28.2188 73.0469 28.3125 73.2031 28.5C73.3594 28.6875 73.4375 28.8906 73.4375 29.1094C73.4375 29.2344 73.4141 29.3516 73.3672 29.4609C73.3047 29.5859 73.1797 29.8516 72.9922 30.2578C72.8203 30.6484 72.5859 31.1016 72.2891 31.6172C72.0078 32.1172 71.6641 32.6484 71.2578 33.2109C70.8516 33.7734 70.3984 34.2969 69.8984 34.7812C69.3984 35.25 68.8516 35.6406 68.2578 35.9531C67.6797 36.25 67.0547 36.3984 66.3828 36.3984C65.4609 36.3984 64.6953 36.1406 64.0859 35.625C63.4766 35.0938 63.0234 34.3438 62.7266 33.375ZM76.9766 33.8906C77.2266 33.375 77.5156 32.8125 77.8438 32.2031C78.1719 31.5781 78.5234 30.9531 78.8984 30.3281C79.2734 29.6875 79.6641 29.0547 80.0703 28.4297C80.4922 27.8047 80.9297 27.2109 81.3828 26.6484C81.8359 26.1016 82.2891 25.7109 82.7422 25.4766C83.2109 25.2266 83.6484 25.1016 84.0547 25.1016C84.8672 25.1016 85.4688 25.3984 85.8594 25.9922C86.25 26.5859 86.4453 27.3203 86.4453 28.1953C86.4453 28.3984 86.4297 28.6484 86.3984 28.9453C86.3828 29.2266 86.3594 29.5312 86.3281 29.8594C86.3125 30.1875 86.2891 30.5234 86.2578 30.8672C86.2422 31.1953 86.2344 31.5078 86.2344 31.8047C86.2344 32.1797 86.25 32.5391 86.2812 32.8828C86.3281 33.2266 86.4062 33.5312 86.5156 33.7969C86.625 34.0469 86.7812 34.25 86.9844 34.4062C87.1875 34.5469 87.4531 34.6172 87.7812 34.6172C88.375 34.6172 88.9531 34.3906 89.5156 33.9375C90.0781 33.4688 90.5938 32.9219 91.0625 32.2969C91.5469 31.6562 91.9609 31.0078 92.3047 30.3516C92.6641 29.6953 92.9297 29.1641 93.1016 28.7578C93.1797 28.5859 93.2891 28.4531 93.4297 28.3594C93.5859 28.2656 93.75 28.2188 93.9219 28.2188C94.1875 28.2188 94.3984 28.3203 94.5547 28.5234C94.7266 28.7109 94.8125 28.9141 94.8125 29.1328C94.8125 29.2422 94.7891 29.3516 94.7422 29.4609C94.6797 29.5859 94.5547 29.8438 94.3672 30.2344C94.1797 30.625 93.9297 31.0781 93.6172 31.5938C93.3203 32.0938 92.9688 32.6328 92.5625 33.2109C92.1562 33.7734 91.7031 34.2891 91.2031 34.7578C90.7188 35.2266 90.1875 35.6172 89.6094 35.9297C89.0469 36.2422 88.4531 36.3984 87.8281 36.3984C87.125 36.3984 86.5547 36.2656 86.1172 36C85.6797 35.7188 85.3359 35.3594 85.0859 34.9219C84.8359 34.4688 84.6641 33.9766 84.5703 33.4453C84.4922 32.8984 84.4531 32.3516 84.4531 31.8047C84.4531 31.5703 84.4609 31.3047 84.4766 31.0078C84.5078 30.7109 84.5391 30.3984 84.5703 30.0703C84.6172 29.7422 84.6484 29.4141 84.6641 29.0859C84.6953 28.7578 84.7109 28.4453 84.7109 28.1484C84.7109 27.6484 84.6328 27.3125 84.4766 27.1406C84.3203 26.9531 84.1797 26.8594 84.0547 26.8594C83.8047 26.8594 83.5156 27.0078 83.1875 27.3047C82.875 27.5859 82.5391 27.9609 82.1797 28.4297C81.8359 28.8984 81.4766 29.4297 81.1016 30.0234C80.7422 30.6016 80.3984 31.1797 80.0703 31.7578C79.7578 32.3359 79.4609 32.8906 79.1797 33.4219C78.9141 33.9375 78.7031 34.3672 78.5469 34.7109C78.2344 35.3672 77.9219 35.8047 77.6094 36.0234C77.2969 36.2578 76.9766 36.375 76.6484 36.375C76.1953 36.375 75.8281 36.2422 75.5469 35.9766C75.2812 35.6953 75.1484 35.3047 75.1484 34.8047C75.1484 34.6953 75.1641 34.4844 75.1953 34.1719C75.2266 33.8438 75.2656 33.4609 75.3125 33.0234C75.3594 32.5703 75.4062 32.0859 75.4531 31.5703C75.5 31.0547 75.5469 30.5469 75.5938 30.0469C75.6406 29.5312 75.6797 29.0547 75.7109 28.6172C75.7422 28.1797 75.7578 27.8125 75.7578 27.5156C75.7578 27.125 75.7422 26.75 75.7109 26.3906C75.6797 26.0312 75.6172 25.8125 75.5234 25.7344C75.3828 25.7812 75.1328 26.0781 74.7734 26.625C74.4141 27.1562 73.9531 28.1016 73.3906 29.4609C73.3125 29.6328 73.1953 29.7656 73.0391 29.8594C72.8828 29.9531 72.7188 30 72.5469 30C72.2812 30 72.0703 29.9141 71.9141 29.7422C71.7578 29.5547 71.6797 29.3438 71.6797 29.1094C71.6797 29 71.7031 28.8828 71.75 28.7578C72.4531 27.0859 73.1094 25.8594 73.7188 25.0781C74.3438 24.2812 74.9609 23.8828 75.5703 23.8828C75.9297 23.8828 76.2344 23.9766 76.4844 24.1641C76.7344 24.3359 76.9297 24.5703 77.0703 24.8672C77.2266 25.1641 77.3359 25.4922 77.3984 25.8516C77.4766 26.2109 77.5156 26.5781 77.5156 26.9531C77.5156 27.2344 77.4922 27.6719 77.4453 28.2656C77.4141 28.8594 77.3672 29.5 77.3047 30.1875C77.2422 30.8594 77.1797 31.5312 77.1172 32.2031C77.0703 32.875 77.0234 33.4375 76.9766 33.8906ZM42.7578 62.7109C44.1016 63.0859 45.2422 63.5156 46.1797 64C47.1328 64.4844 47.9297 64.9922 48.5703 65.5234C49.2266 66.0391 49.7422 66.5703 50.1172 67.1172C50.4922 67.6641 50.7812 68.1875 50.9844 68.6875C51.1875 69.1875 51.3125 69.6562 51.3594 70.0938C51.4219 70.5156 51.4531 70.875 51.4531 71.1719C51.4531 72.2656 51.2422 73.2422 50.8203 74.1016C50.4141 74.9609 49.8594 75.7188 49.1562 76.375C48.4531 77.0312 47.6328 77.5859 46.6953 78.0391C45.7734 78.4922 44.8047 78.8594 43.7891 79.1406C42.7734 79.4375 41.7344 79.6484 40.6719 79.7734C39.6094 79.9141 38.6016 79.9844 37.6484 79.9844C36.1016 79.9844 34.5 79.8281 32.8438 79.5156C31.2031 79.2031 29.5391 78.6953 27.8516 77.9922C27.4766 77.8359 27.2891 77.5625 27.2891 77.1719C27.2891 76.9062 27.3828 76.6953 27.5703 76.5391C27.7578 76.3672 27.9609 76.2812 28.1797 76.2812C28.2891 76.2812 28.4062 76.3047 28.5312 76.3516C29.9844 76.9609 31.4766 77.4219 33.0078 77.7344C34.5391 78.0469 36.0781 78.2031 37.625 78.2031C39.7344 78.2031 41.5469 78 43.0625 77.5938C44.5781 77.1875 45.8203 76.6562 46.7891 76C47.7734 75.3281 48.5 74.5781 48.9688 73.75C49.4375 72.9062 49.6719 72.0547 49.6719 71.1953C49.6719 70.2422 49.4062 69.3594 48.875 68.5469C48.3594 67.7344 47.6172 67.0078 46.6484 66.3672C45.6953 65.7266 44.5469 65.1797 43.2031 64.7266C41.8594 64.2734 40.3672 63.9375 38.7266 63.7188C37.6484 63.9062 36.6016 64.0391 35.5859 64.1172C34.5703 64.1953 33.6328 64.2344 32.7734 64.2344H32.2344C32.125 64.2344 32.0234 64.2266 31.9297 64.2109C30.8047 66.9141 29.4609 69.25 27.8984 71.2188C26.3516 73.1875 24.6953 74.8203 22.9297 76.1172C21.1797 77.3984 19.375 78.3516 17.5156 78.9766C15.6719 79.5859 13.8984 79.8906 12.1953 79.8906C10.4297 79.8906 8.80469 79.6406 7.32031 79.1406C5.85156 78.6562 4.58594 77.9609 3.52344 77.0547C2.46094 76.1484 1.63281 75.0547 1.03906 73.7734C0.445312 72.4766 0.148438 71.0312 0.148438 69.4375C0.148438 67.7812 0.46875 66.0703 1.10938 64.3047C1.76562 62.5234 2.73438 60.7188 4.01562 58.8906C5.23438 57.1719 6.58594 55.6328 8.07031 54.2734C9.55469 52.8984 11.1094 51.6953 12.7344 50.6641C14.375 49.6328 16.0625 48.75 17.7969 48.0156C19.5312 47.2812 21.25 46.6797 22.9531 46.2109C24.6719 45.7422 26.3438 45.4062 27.9688 45.2031C29.6094 44.9844 31.1484 44.875 32.5859 44.875C33.7578 44.875 34.875 44.9141 35.9375 44.9922C37 45.0703 38.0156 45.1875 38.9844 45.3438C39.5469 44.7188 40 44.2734 40.3438 44.0078C40.6875 43.7266 40.8828 43.5703 40.9297 43.5391C41.1172 43.4453 41.2812 43.3984 41.4219 43.3984C41.6406 43.3984 41.8359 43.4609 42.0078 43.5859C42.1797 43.7109 42.2656 43.8906 42.2656 44.125C42.2656 44.4375 42.1562 44.7031 41.9375 44.9219C41.7188 45.125 41.4219 45.4062 41.0469 45.7656C43.9062 46.4688 46.0938 47.5312 47.6094 48.9531C49.125 50.3594 49.8828 52.1016 49.8828 54.1797C49.8828 55.3203 49.6953 56.3438 49.3203 57.25C48.9453 58.1562 48.4297 58.9531 47.7734 59.6406C47.1328 60.3281 46.375 60.9297 45.5 61.4453C44.6406 61.9453 43.7266 62.3672 42.7578 62.7109ZM38.75 61.9375C39.4375 61.8125 40.1406 61.6484 40.8594 61.4453C41.5938 61.2422 42.3047 61 42.9922 60.7188C43.6953 60.4219 44.3594 60.0781 44.9844 59.6875C45.6094 59.2812 46.1484 58.8125 46.6016 58.2812C47.0703 57.7344 47.4375 57.125 47.7031 56.4531C47.9844 55.7812 48.125 55.0156 48.125 54.1562C48.125 52.4062 47.3984 50.9609 45.9453 49.8203C44.4922 48.6797 42.4062 47.8359 39.6875 47.2891C38.9062 48.2578 38.1719 49.3281 37.4844 50.5C36.7969 51.6719 36.1641 52.8906 35.5859 54.1562C35.0078 55.4062 34.4844 56.6797 34.0156 57.9766C33.5625 59.2578 33.1875 60.5 32.8906 61.7031C33.2031 61.6875 33.4922 61.6797 33.7578 61.6797C34.0234 61.6797 34.25 61.6797 34.4375 61.6797C35.0469 61.6797 35.7109 61.7031 36.4297 61.75C37.1484 61.7812 37.9219 61.8438 38.75 61.9375ZM37.6953 46.9609C36.8984 46.8516 36.0781 46.7734 35.2344 46.7266C34.3906 46.6797 33.5078 46.6562 32.5859 46.6562C31.2109 46.6562 29.75 46.7578 28.2031 46.9609C26.6562 47.1641 25.0703 47.4844 23.4453 47.9219C21.8203 48.3594 20.1797 48.9297 18.5234 49.6328C16.8828 50.3203 15.2812 51.1562 13.7188 52.1406C12.1719 53.1094 10.6953 54.2422 9.28906 55.5391C7.88281 56.8359 6.60156 58.2969 5.44531 59.9219C4.27344 61.5781 3.39062 63.2109 2.79688 64.8203C2.20312 66.4297 1.90625 67.9609 1.90625 69.4141C1.90625 70.7734 2.14844 71.9922 2.63281 73.0703C3.13281 74.1484 3.83594 75.0625 4.74219 75.8125C5.64844 76.5469 6.73438 77.1172 8 77.5234C9.26562 77.9141 10.6641 78.1094 12.1953 78.1094C13.7266 78.1094 15.3203 77.8359 16.9766 77.2891C18.6328 76.7266 20.25 75.875 21.8281 74.7344C23.4062 73.5781 24.9062 72.125 26.3281 70.375C27.75 68.6094 28.9922 66.5156 30.0547 64.0938C29.7734 64.0938 29.4844 64.0156 29.1875 63.8594C28.8906 63.6875 28.7422 63.4219 28.7422 63.0625C28.7422 62.6875 28.9219 62.4219 29.2812 62.2656C29.6406 62.0938 30.2031 61.9531 30.9688 61.8438C31.3906 60.5625 31.8203 59.2812 32.2578 58C32.6953 56.7188 33.1797 55.4531 33.7109 54.2031C34.2422 52.9531 34.8281 51.7266 35.4688 50.5234C36.1094 49.3047 36.8516 48.1172 37.6953 46.9609ZM62.7266 76.375C62.1797 77.2656 61.5391 77.9688 60.8047 78.4844C60.0859 79 59.3594 79.2578 58.625 79.2578C58.0312 79.2578 57.5 79.1484 57.0312 78.9297C56.5625 78.7109 56.1562 78.4062 55.8125 78.0156C55.4688 77.6094 55.2031 77.125 55.0156 76.5625C54.8438 76 54.7578 75.3672 54.7578 74.6641C54.7578 73.5703 54.8594 72.6016 55.0625 71.7578C55.2812 70.9141 55.5156 70.2109 55.7656 69.6484C56.0156 69.0703 56.25 68.6328 56.4688 68.3359C56.6875 68.0391 56.7969 67.8906 56.7969 67.8906C56.875 67.7969 56.9688 67.7266 57.0781 67.6797C57.2031 67.6328 57.3281 67.6094 57.4531 67.6094C57.7031 67.6094 57.9062 67.7031 58.0625 67.8906C58.2344 68.0625 58.3203 68.2656 58.3203 68.5C58.3203 68.5938 58.2969 68.6875 58.25 68.7812C58.2188 68.875 58.1797 68.9688 58.1328 69.0625C58.0547 69.2031 57.9297 69.4219 57.7578 69.7188C57.5859 70 57.4062 70.375 57.2188 70.8438C57.0312 71.3125 56.8672 71.8672 56.7266 72.5078C56.5859 73.1328 56.5156 73.8516 56.5156 74.6641C56.5156 75.5859 56.6953 76.2891 57.0547 76.7734C57.4297 77.2422 57.9531 77.4766 58.625 77.4766C58.9062 77.4766 59.2266 77.3906 59.5859 77.2188C59.9609 77.0312 60.3203 76.75 60.6641 76.375C61.0234 76 61.3359 75.5234 61.6016 74.9453C61.8672 74.3672 62.0391 73.6875 62.1172 72.9062L62.4688 68.875C62.5 68.6406 62.6016 68.4453 62.7734 68.2891C62.9453 68.1328 63.1484 68.0547 63.3828 68.0547C63.6484 68.0547 63.8594 68.1562 64.0156 68.3594C64.1719 68.5469 64.25 68.7656 64.25 69.0156L63.9453 72.9062C63.9141 73.2344 63.9219 73.6641 63.9688 74.1953C64.0312 74.7266 64.1484 75.25 64.3203 75.7656C64.4922 76.2812 64.75 76.7266 65.0938 77.1016C65.4375 77.4609 65.8906 77.6406 66.4531 77.6406C66.8594 77.6406 67.2578 77.5391 67.6484 77.3359C68.0391 77.1172 68.4141 76.8359 68.7734 76.4922C69.1328 76.1484 69.4609 75.7656 69.7578 75.3438C70.0703 74.9062 70.3516 74.4688 70.6016 74.0312C70.8672 73.5938 71.0938 73.1797 71.2812 72.7891C71.4688 72.3828 71.625 72.0391 71.75 71.7578C71.8281 71.5859 71.9375 71.4531 72.0781 71.3594C72.2188 71.2656 72.375 71.2188 72.5469 71.2188C72.8281 71.2188 73.0469 71.3125 73.2031 71.5C73.3594 71.6875 73.4375 71.8906 73.4375 72.1094C73.4375 72.2344 73.4141 72.3516 73.3672 72.4609C73.3047 72.5859 73.1797 72.8516 72.9922 73.2578C72.8203 73.6484 72.5859 74.1016 72.2891 74.6172C72.0078 75.1172 71.6641 75.6484 71.2578 76.2109C70.8516 76.7734 70.3984 77.2969 69.8984 77.7812C69.3984 78.25 68.8516 78.6406 68.2578 78.9531C67.6797 79.25 67.0547 79.3984 66.3828 79.3984C65.4609 79.3984 64.6953 79.1406 64.0859 78.625C63.4766 78.0938 63.0234 77.3438 62.7266 76.375ZM76.9766 76.8906C77.2266 76.375 77.5156 75.8125 77.8438 75.2031C78.1719 74.5781 78.5234 73.9531 78.8984 73.3281C79.2734 72.6875 79.6641 72.0547 80.0703 71.4297C80.4922 70.8047 80.9297 70.2109 81.3828 69.6484C81.8359 69.1016 82.2891 68.7109 82.7422 68.4766C83.2109 68.2266 83.6484 68.1016 84.0547 68.1016C84.8672 68.1016 85.4688 68.3984 85.8594 68.9922C86.25 69.5859 86.4453 70.3203 86.4453 71.1953C86.4453 71.3984 86.4297 71.6484 86.3984 71.9453C86.3828 72.2266 86.3594 72.5312 86.3281 72.8594C86.3125 73.1875 86.2891 73.5234 86.2578 73.8672C86.2422 74.1953 86.2344 74.5078 86.2344 74.8047C86.2344 75.1797 86.25 75.5391 86.2812 75.8828C86.3281 76.2266 86.4062 76.5312 86.5156 76.7969C86.625 77.0469 86.7812 77.25 86.9844 77.4062C87.1875 77.5469 87.4531 77.6172 87.7812 77.6172C88.375 77.6172 88.9531 77.3906 89.5156 76.9375C90.0781 76.4688 90.5938 75.9219 91.0625 75.2969C91.5469 74.6562 91.9609 74.0078 92.3047 73.3516C92.6641 72.6953 92.9297 72.1641 93.1016 71.7578C93.1797 71.5859 93.2891 71.4531 93.4297 71.3594C93.5859 71.2656 93.75 71.2188 93.9219 71.2188C94.1875 71.2188 94.3984 71.3203 94.5547 71.5234C94.7266 71.7109 94.8125 71.9141 94.8125 72.1328C94.8125 72.2422 94.7891 72.3516 94.7422 72.4609C94.6797 72.5859 94.5547 72.8438 94.3672 73.2344C94.1797 73.625 93.9297 74.0781 93.6172 74.5938C93.3203 75.0938 92.9688 75.6328 92.5625 76.2109C92.1562 76.7734 91.7031 77.2891 91.2031 77.7578C90.7188 78.2266 90.1875 78.6172 89.6094 78.9297C89.0469 79.2422 88.4531 79.3984 87.8281 79.3984C87.125 79.3984 86.5547 79.2656 86.1172 79C85.6797 78.7188 85.3359 78.3594 85.0859 77.9219C84.8359 77.4688 84.6641 76.9766 84.5703 76.4453C84.4922 75.8984 84.4531 75.3516 84.4531 74.8047C84.4531 74.5703 84.4609 74.3047 84.4766 74.0078C84.5078 73.7109 84.5391 73.3984 84.5703 73.0703C84.6172 72.7422 84.6484 72.4141 84.6641 72.0859C84.6953 71.7578 84.7109 71.4453 84.7109 71.1484C84.7109 70.6484 84.6328 70.3125 84.4766 70.1406C84.3203 69.9531 84.1797 69.8594 84.0547 69.8594C83.8047 69.8594 83.5156 70.0078 83.1875 70.3047C82.875 70.5859 82.5391 70.9609 82.1797 71.4297C81.8359 71.8984 81.4766 72.4297 81.1016 73.0234C80.7422 73.6016 80.3984 74.1797 80.0703 74.7578C79.7578 75.3359 79.4609 75.8906 79.1797 76.4219C78.9141 76.9375 78.7031 77.3672 78.5469 77.7109C78.2344 78.3672 77.9219 78.8047 77.6094 79.0234C77.2969 79.2578 76.9766 79.375 76.6484 79.375C76.1953 79.375 75.8281 79.2422 75.5469 78.9766C75.2812 78.6953 75.1484 78.3047 75.1484 77.8047C75.1484 77.6953 75.1641 77.4844 75.1953 77.1719C75.2266 76.8438 75.2656 76.4609 75.3125 76.0234C75.3594 75.5703 75.4062 75.0859 75.4531 74.5703C75.5 74.0547 75.5469 73.5469 75.5938 73.0469C75.6406 72.5312 75.6797 72.0547 75.7109 71.6172C75.7422 71.1797 75.7578 70.8125 75.7578 70.5156C75.7578 70.125 75.7422 69.75 75.7109 69.3906C75.6797 69.0312 75.6172 68.8125 75.5234 68.7344C75.3828 68.7812 75.1328 69.0781 74.7734 69.625C74.4141 70.1562 73.9531 71.1016 73.3906 72.4609C73.3125 72.6328 73.1953 72.7656 73.0391 72.8594C72.8828 72.9531 72.7188 73 72.5469 73C72.2812 73 72.0703 72.9141 71.9141 72.7422C71.7578 72.5547 71.6797 72.3438 71.6797 72.1094C71.6797 72 71.7031 71.8828 71.75 71.7578C72.4531 70.0859 73.1094 68.8594 73.7188 68.0781C74.3438 67.2812 74.9609 66.8828 75.5703 66.8828C75.9297 66.8828 76.2344 66.9766 76.4844 67.1641C76.7344 67.3359 76.9297 67.5703 77.0703 67.8672C77.2266 68.1641 77.3359 68.4922 77.3984 68.8516C77.4766 69.2109 77.5156 69.5781 77.5156 69.9531C77.5156 70.2344 77.4922 70.6719 77.4453 71.2656C77.4141 71.8594 77.3672 72.5 77.3047 73.1875C77.2422 73.8594 77.1797 74.5312 77.1172 75.2031C77.0703 75.875 77.0234 76.4375 76.9766 76.8906Z" fill="#894E3F"/>
</svg>
